<svg width="123" height="36" viewBox="0 0 123 36" fill="none" xmlns="http://www.w3.org/2000/svg">
<rect x="14.9788" y="5" width="22.7489" height="10" rx="5" transform="rotate(44.2559 14.9788 5)" fill="#002AFF"/>
<rect x="8.87402" y="11" width="22.7489" height="10" rx="5" transform="rotate(22.7929 8.87402 11)" fill="#5A76FF"/>
<rect x="7" y="19" width="22.7489" height="10" rx="5" fill="#99AAFF"/>
<g style="mix-blend-mode:plus-lighter" filter="url(#filter0_f_407_12)">
<rect x="12.4175" y="7" width="22.7489" height="10" rx="5" transform="rotate(39.9232 12.4175 7)" fill="#4B66EB"/>
</g>
<path d="M49.7827 25.5H43.2305V10.7036H49.6699C52.4487 10.7036 54.1919 12.1289 54.1919 14.395C54.1919 16.0151 52.9819 17.3687 51.4131 17.6045V17.6865C53.4229 17.8403 54.8994 19.3066 54.8994 21.2651C54.8994 23.8696 52.9409 25.5 49.7827 25.5ZM46.3271 13.0107V16.856H48.5522C50.2031 16.856 51.1465 16.1279 51.1465 14.877C51.1465 13.6875 50.3159 13.0107 48.8701 13.0107H46.3271ZM46.3271 23.1929H48.9932C50.7773 23.1929 51.7412 22.4341 51.7412 21.019C51.7412 19.6348 50.7466 18.8965 48.9214 18.8965H46.3271V23.1929ZM56.4785 25.5V10.7036H59.4727V25.5H56.4785ZM71.644 14.5078V25.5H68.7524V23.521H68.6909C68.1475 24.9053 67.0605 25.7051 65.3994 25.7051C63.0205 25.7051 61.4414 24.1567 61.4414 21.5933V14.5078H64.4355V20.9678C64.4355 22.4341 65.1636 23.2134 66.4863 23.2134C67.8193 23.2134 68.6499 22.2598 68.6499 20.8037V14.5078H71.644ZM78.5244 16.4868C77.2119 16.4868 76.2686 17.4814 76.166 18.8555H80.8315C80.77 17.4507 79.8574 16.4868 78.5244 16.4868ZM80.8726 22.1367H83.6206C83.2925 24.29 81.3237 25.7358 78.6064 25.7358C75.2227 25.7358 73.1924 23.5723 73.1924 20.0552C73.1924 16.5483 75.2432 14.272 78.4937 14.272C81.6929 14.272 83.7129 16.4355 83.7129 19.7783V20.6909H76.1353V20.8755C76.1353 22.4443 77.1299 23.521 78.6577 23.521C79.7549 23.521 80.5957 22.9775 80.8726 22.1367ZM85.0767 17.7378C85.0767 15.646 86.8916 14.272 89.7114 14.272C92.4697 14.272 94.2642 15.6665 94.3052 17.7993H91.5469C91.4854 16.9175 90.7778 16.374 89.6704 16.374C88.6348 16.374 87.958 16.8457 87.958 17.5532C87.958 18.0967 88.4297 18.4658 89.3936 18.6914L91.4956 19.1426C93.7002 19.6348 94.5923 20.5063 94.5923 22.147C94.5923 24.3105 92.603 25.7358 89.7012 25.7358C86.7686 25.7358 84.9639 24.3208 84.7998 22.1777H87.7222C87.8657 23.1006 88.5938 23.6338 89.7832 23.6338C90.9214 23.6338 91.6084 23.1826 91.6084 22.4648C91.6084 21.9111 91.2393 21.6035 90.2549 21.3677L88.2246 20.9165C86.1431 20.4448 85.0767 19.3579 85.0767 17.7378ZM101.134 25.7358C97.812 25.7358 95.6895 23.603 95.6895 19.9937C95.6895 16.4355 97.8428 14.272 101.134 14.272C104.426 14.272 106.579 16.4253 106.579 19.9937C106.579 23.6133 104.457 25.7358 101.134 25.7358ZM101.134 23.4492C102.601 23.4492 103.534 22.2085 103.534 20.0039C103.534 17.8198 102.59 16.5586 101.134 16.5586C99.6782 16.5586 98.7246 17.8198 98.7246 20.0039C98.7246 22.2085 99.6577 23.4492 101.134 23.4492ZM108.927 25.5V16.7637H107.43V14.5591H108.927V13.7285C108.927 11.5752 109.942 10.5703 112.547 10.5703C113.101 10.5703 113.726 10.6318 114.075 10.7036V12.6826C113.859 12.6416 113.562 12.6211 113.265 12.6211C112.28 12.6211 111.85 13.0518 111.85 13.8311V14.5591H114.034V16.7637H111.921V25.5H108.927ZM116.413 11.9751H119.407V14.5078H121.437V16.7637H119.407V22.0239C119.407 22.8647 119.817 23.2646 120.699 23.2646C120.965 23.2646 121.242 23.2441 121.427 23.2134V25.418C121.119 25.4897 120.606 25.541 120.001 25.541C117.417 25.541 116.413 24.6797 116.413 22.5366V16.7637H114.864V14.5078H116.413V11.9751Z" fill="white"/>
<defs>
<filter id="filter0_f_407_12" x="3.04321" y="4.04321" width="29.7773" height="28.1819" filterUnits="userSpaceOnUse" color-interpolation-filters="sRGB">
<feFlood flood-opacity="0" result="BackgroundImageFix"/>
<feBlend mode="normal" in="SourceGraphic" in2="BackgroundImageFix" result="shape"/>
<feGaussianBlur stdDeviation="2.5" result="effect1_foregroundBlur_407_12"/>
</filter>
</defs>
</svg>
