<svg width="1348" height="360" viewBox="0 0 1348 360" fill="none" xmlns="http://www.w3.org/2000/svg">
<g clip-path="url(#clip0_408_11)">
<rect width="1348" height="360" rx="8" fill="url(#paint0_linear_408_11)"/>
<rect width="1348" height="360" rx="8" fill="#3374FF"/>
<path d="M453 144L908 225.5V485H453V144Z" fill="url(#paint1_linear_408_11)"/>
<g filter="url(#filter0_d_408_11)">
<rect x="465.337" y="60" width="461.525" height="138.738" rx="69.3689" transform="rotate(13.0542 465.337 60)" fill="#5289FF" shape-rendering="crispEdges"/>
<path d="M533.193 127.588L547.088 130.809C558.008 133.341 562.93 141.338 560.252 152.888C557.574 164.438 549.57 169.731 538.651 167.199L524.756 163.977L533.193 127.588ZM539.353 135.633L533.834 159.438L539.205 160.684C546.014 162.263 550.655 158.981 552.479 151.113C554.245 143.497 551.433 138.433 544.725 136.878L539.353 135.633ZM585.919 139.148C596.687 141.645 601.792 150.456 599.103 162.056C596.419 173.631 587.957 179.296 577.189 176.799C566.396 174.296 561.316 165.492 563.999 153.917C566.689 142.316 575.126 136.646 585.919 139.148ZM584.445 145.503C578.494 144.123 573.538 148.077 571.767 155.718C570.001 163.333 572.692 169.033 578.668 170.419C584.62 171.799 589.545 167.865 591.31 160.249C593.082 152.608 590.397 146.883 584.445 145.503ZM626.097 161.273L613.422 184.536L606.235 182.869L605.039 144.246L612.932 146.076L612.547 173.756L612.748 173.803L625.667 149.029L632.098 150.52L632.797 178.452L632.998 178.498L644.858 153.479L652.751 155.309L634.656 189.459L627.468 187.792L626.324 161.326L626.097 161.273ZM655.713 194.341L648.425 192.651L656.862 156.262L663.217 157.736L674.717 185.381L674.919 185.428L680.416 161.723L687.704 163.413L679.266 199.803L672.962 198.341L661.465 170.563L661.238 170.51L655.713 194.341ZM710.334 200.363L708.872 206.667L685.344 201.212L693.781 164.822L701.397 166.588L694.421 196.673L710.334 200.363ZM736.873 174.15C747.641 176.646 752.747 185.457 750.057 197.057C747.373 208.632 738.912 214.297 728.144 211.8C717.35 209.297 712.27 200.493 714.954 188.918C717.644 177.317 726.08 171.647 736.873 174.15ZM735.4 180.504C729.448 179.124 724.493 183.078 722.721 190.719C720.955 198.334 723.646 204.034 729.623 205.42C735.574 206.8 740.499 202.866 742.265 195.25C744.037 187.609 741.351 181.884 735.4 180.504ZM773.077 221.554L772.349 212.084L759.564 209.12L754.743 217.303L746.926 215.49L767.997 182.03L776.95 184.106L781.172 223.431L773.077 221.554ZM770.645 189.979L762.524 203.801L772.032 206.005L770.822 190.02L770.645 189.979ZM793.341 187.907L807.236 191.129C818.156 193.66 823.078 201.658 820.4 213.207C817.722 224.757 809.718 230.05 798.799 227.518L784.904 224.296L793.341 187.907ZM799.501 195.952L793.981 219.758L799.353 221.003C806.162 222.582 810.802 219.3 812.627 211.432C814.393 203.816 811.581 198.753 804.873 197.197L799.501 195.952Z" fill="white"/>
</g>
<g style="mix-blend-mode:plus-lighter" filter="url(#filter1_f_408_11)">
<path d="M434 92L889 173.5V433H434V92Z" fill="url(#paint2_linear_408_11)"/>
</g>
<g style="mix-blend-mode:plus-lighter" filter="url(#filter2_f_408_11)">
<ellipse cx="1229.04" cy="77.8625" rx="328" ry="74.5" transform="rotate(21.9826 1229.04 77.8625)" fill="#3877FF"/>
</g>
<g style="mix-blend-mode:plus-lighter" filter="url(#filter3_f_408_11)">
<ellipse cx="1429.04" cy="323.862" rx="328" ry="74.5" transform="rotate(21.9826 1429.04 323.862)" fill="#3877FF"/>
</g>
<g style="mix-blend-mode:plus-lighter" filter="url(#filter4_f_408_11)">
<ellipse cx="1088.89" cy="285.765" rx="81.963" ry="74.5" transform="rotate(21.9826 1088.89 285.765)" fill="#B8CEFF"/>
</g>
<g style="mix-blend-mode:plus-lighter" filter="url(#filter5_f_408_11)">
<ellipse cx="328" cy="74.5" rx="328" ry="74.5" transform="matrix(0.927297 -0.374326 -0.374326 -0.927297 647.774 689.725)" fill="#3877FF"/>
</g>
<g style="mix-blend-mode:plus-lighter" filter="url(#filter6_f_408_11)">
<ellipse cx="328" cy="74.5" rx="328" ry="74.5" transform="matrix(0.927297 -0.374326 -0.374326 -0.927297 847.774 443.725)" fill="#3877FF"/>
</g>
<g style="mix-blend-mode:plus-lighter" filter="url(#filter7_f_408_11)">
<ellipse cx="169.677" cy="74.5" rx="169.677" ry="74.5" transform="matrix(0.927297 -0.374326 -0.374326 -0.927297 725.774 426.196)" fill="#B8CEFF"/>
</g>
<g style="mix-blend-mode:plus-lighter" filter="url(#filter8_f_408_11)">
<ellipse cx="349.704" cy="101.953" rx="143.658" ry="78.8358" transform="rotate(2.10006 349.704 101.953)" fill="#B8CEFF"/>
</g>
<g style="mix-blend-mode:plus-lighter" filter="url(#filter9_f_408_11)">
<ellipse cx="162.45" cy="39.0472" rx="143.658" ry="78.8358" transform="rotate(2.10006 162.45 39.0472)" fill="#B8CEFF"/>
</g>
<g style="mix-blend-mode:plus-lighter" filter="url(#filter10_f_408_11)">
<ellipse cx="-100.959" cy="262.862" rx="328" ry="74.5" transform="rotate(21.9826 -100.959 262.862)" fill="#3877FF"/>
</g>
<g style="mix-blend-mode:plus-lighter" filter="url(#filter11_f_408_11)">
<ellipse cx="-194.923" cy="273.953" rx="328" ry="74.5" transform="rotate(-28.949 -194.923 273.953)" fill="#3877FF"/>
</g>
<g style="mix-blend-mode:soft-light">
<path d="M629.341 335.174C626.593 335.174 624.86 333 624.86 329.483C624.86 325.997 626.603 323.833 629.361 323.833C630.951 323.833 632.181 324.674 632.714 325.895H632.776V320.204H635.77V335H632.817V333.113H632.766C632.232 334.323 630.961 335.174 629.341 335.174ZM630.356 326.233C628.849 326.233 627.926 327.494 627.926 329.504C627.926 331.524 628.849 332.765 630.356 332.765C631.843 332.765 632.796 331.514 632.796 329.504C632.796 327.504 631.843 326.233 630.356 326.233ZM642.814 335.236C639.492 335.236 637.37 333.103 637.37 329.494C637.37 325.936 639.523 323.772 642.814 323.772C646.106 323.772 648.259 325.925 648.259 329.494C648.259 333.113 646.137 335.236 642.814 335.236ZM642.814 332.949C644.281 332.949 645.214 331.708 645.214 329.504C645.214 327.32 644.271 326.059 642.814 326.059C641.358 326.059 640.405 327.32 640.405 329.504C640.405 331.708 641.338 332.949 642.814 332.949ZM649.808 335V324.008H652.699V325.997H652.761C653.222 324.674 654.401 323.803 655.898 323.803C657.488 323.803 658.595 324.623 658.964 326.059H659.026C659.518 324.674 660.831 323.803 662.44 323.803C664.594 323.803 666.04 325.279 666.04 327.494V335H663.045V328.243C663.045 326.971 662.41 326.274 661.251 326.274C660.113 326.274 659.364 327.104 659.364 328.325V335H656.483V328.15C656.483 326.971 655.816 326.274 654.709 326.274C653.571 326.274 652.802 327.135 652.802 328.366V335H649.808ZM672.869 325.987C671.556 325.987 670.613 326.981 670.51 328.355H675.176C675.114 326.951 674.202 325.987 672.869 325.987ZM675.217 331.637H677.965C677.637 333.79 675.668 335.236 672.951 335.236C669.567 335.236 667.537 333.072 667.537 329.555C667.537 326.048 669.587 323.772 672.838 323.772C676.037 323.772 678.057 325.936 678.057 329.278V330.191H670.479V330.375C670.479 331.944 671.474 333.021 673.002 333.021C674.099 333.021 674.94 332.478 675.217 331.637ZM679.605 335V324.008H682.497V325.966H682.559C683.143 324.603 684.302 323.803 685.994 323.803C688.434 323.803 689.808 325.341 689.808 327.915V335H686.814V328.54C686.814 327.104 686.137 326.284 684.794 326.284C683.451 326.284 682.6 327.269 682.6 328.694V335H679.605ZM693.653 335.123C692.73 335.123 692.002 334.385 692.002 333.472C692.002 332.549 692.73 331.821 693.653 331.821C694.566 331.821 695.304 332.549 695.304 333.472C695.304 334.385 694.566 335.123 693.653 335.123ZM707.065 328.099H704.287C704.112 326.94 703.343 326.12 702.113 326.12C700.636 326.12 699.713 327.371 699.713 329.494C699.713 331.657 700.636 332.888 702.123 332.888C703.323 332.888 704.102 332.17 704.287 330.97H707.076C706.922 333.564 704.984 335.236 702.092 335.236C698.78 335.236 696.678 333.083 696.678 329.494C696.678 325.966 698.78 323.772 702.072 323.772C705.045 323.772 706.932 325.607 707.065 328.099ZM713.566 335.236C710.244 335.236 708.122 333.103 708.122 329.494C708.122 325.936 710.275 323.772 713.566 323.772C716.858 323.772 719.011 325.925 719.011 329.494C719.011 333.113 716.889 335.236 713.566 335.236ZM713.566 332.949C715.033 332.949 715.966 331.708 715.966 329.504C715.966 327.32 715.022 326.059 713.566 326.059C712.11 326.059 711.157 327.32 711.157 329.504C711.157 331.708 712.09 332.949 713.566 332.949ZM720.56 335V324.008H723.451V325.997H723.513C723.974 324.674 725.153 323.803 726.65 323.803C728.24 323.803 729.347 324.623 729.716 326.059H729.778C730.27 324.674 731.583 323.803 733.192 323.803C735.346 323.803 736.792 325.279 736.792 327.494V335H733.797V328.243C733.797 326.971 733.162 326.274 732.003 326.274C730.865 326.274 730.116 327.104 730.116 328.325V335H727.235V328.15C727.235 326.971 726.568 326.274 725.461 326.274C724.323 326.274 723.554 327.135 723.554 328.366V335H720.56Z" fill="white"/>
</g>
</g>
<defs>
<filter id="filter0_d_408_11" x="434" y="60" width="487.935" height="247.398" filterUnits="userSpaceOnUse" color-interpolation-filters="sRGB">
<feFlood flood-opacity="0" result="BackgroundImageFix"/>
<feColorMatrix in="SourceAlpha" type="matrix" values="0 0 0 0 0 0 0 0 0 0 0 0 0 0 0 0 0 0 127 0" result="hardAlpha"/>
<feOffset dx="7" dy="8"/>
<feComposite in2="hardAlpha" operator="out"/>
<feColorMatrix type="matrix" values="0 0 0 0 0.0763889 0 0 0 0 0.285244 0 0 0 0 0.733333 0 0 0 1 0"/>
<feBlend mode="normal" in2="BackgroundImageFix" result="effect1_dropShadow_408_11"/>
<feBlend mode="normal" in="SourceGraphic" in2="effect1_dropShadow_408_11" result="shape"/>
</filter>
<filter id="filter1_f_408_11" x="357.1" y="15.1" width="608.8" height="494.8" filterUnits="userSpaceOnUse" color-interpolation-filters="sRGB">
<feFlood flood-opacity="0" result="BackgroundImageFix"/>
<feBlend mode="normal" in="SourceGraphic" in2="BackgroundImageFix" result="shape"/>
<feGaussianBlur stdDeviation="38.45" result="effect1_foregroundBlur_408_11"/>
</filter>
<filter id="filter2_f_408_11" x="829.092" y="-157.543" width="799.898" height="470.81" filterUnits="userSpaceOnUse" color-interpolation-filters="sRGB">
<feFlood flood-opacity="0" result="BackgroundImageFix"/>
<feBlend mode="normal" in="SourceGraphic" in2="BackgroundImageFix" result="shape"/>
<feGaussianBlur stdDeviation="47.25" result="effect1_foregroundBlur_408_11"/>
</filter>
<filter id="filter3_f_408_11" x="1029.09" y="88.4574" width="799.898" height="470.81" filterUnits="userSpaceOnUse" color-interpolation-filters="sRGB">
<feFlood flood-opacity="0" result="BackgroundImageFix"/>
<feBlend mode="normal" in="SourceGraphic" in2="BackgroundImageFix" result="shape"/>
<feGaussianBlur stdDeviation="47.25" result="effect1_foregroundBlur_408_11"/>
</filter>
<filter id="filter4_f_408_11" x="913.41" y="115.656" width="350.962" height="340.218" filterUnits="userSpaceOnUse" color-interpolation-filters="sRGB">
<feFlood flood-opacity="0" result="BackgroundImageFix"/>
<feBlend mode="normal" in="SourceGraphic" in2="BackgroundImageFix" result="shape"/>
<feGaussianBlur stdDeviation="47.25" result="effect1_foregroundBlur_408_11"/>
</filter>
<filter id="filter5_f_408_11" x="524.092" y="262.457" width="799.898" height="470.81" filterUnits="userSpaceOnUse" color-interpolation-filters="sRGB">
<feFlood flood-opacity="0" result="BackgroundImageFix"/>
<feBlend mode="normal" in="SourceGraphic" in2="BackgroundImageFix" result="shape"/>
<feGaussianBlur stdDeviation="47.25" result="effect1_foregroundBlur_408_11"/>
</filter>
<filter id="filter6_f_408_11" x="724.092" y="16.4574" width="799.898" height="470.81" filterUnits="userSpaceOnUse" color-interpolation-filters="sRGB">
<feFlood flood-opacity="0" result="BackgroundImageFix"/>
<feBlend mode="normal" in="SourceGraphic" in2="BackgroundImageFix" result="shape"/>
<feGaussianBlur stdDeviation="47.25" result="effect1_foregroundBlur_408_11"/>
</filter>
<filter id="filter7_f_408_11" x="600.908" y="105.254" width="508.64" height="376.688" filterUnits="userSpaceOnUse" color-interpolation-filters="sRGB">
<feFlood flood-opacity="0" result="BackgroundImageFix"/>
<feBlend mode="normal" in="SourceGraphic" in2="BackgroundImageFix" result="shape"/>
<feGaussianBlur stdDeviation="47.25" result="effect1_foregroundBlur_408_11"/>
</filter>
<filter id="filter8_f_408_11" x="111.614" y="-71.5087" width="476.181" height="346.923" filterUnits="userSpaceOnUse" color-interpolation-filters="sRGB">
<feFlood flood-opacity="0" result="BackgroundImageFix"/>
<feBlend mode="normal" in="SourceGraphic" in2="BackgroundImageFix" result="shape"/>
<feGaussianBlur stdDeviation="47.25" result="effect1_foregroundBlur_408_11"/>
</filter>
<filter id="filter9_f_408_11" x="-75.6406" y="-134.414" width="476.181" height="346.923" filterUnits="userSpaceOnUse" color-interpolation-filters="sRGB">
<feFlood flood-opacity="0" result="BackgroundImageFix"/>
<feBlend mode="normal" in="SourceGraphic" in2="BackgroundImageFix" result="shape"/>
<feGaussianBlur stdDeviation="47.25" result="effect1_foregroundBlur_408_11"/>
</filter>
<filter id="filter10_f_408_11" x="-500.908" y="27.4574" width="799.898" height="470.81" filterUnits="userSpaceOnUse" color-interpolation-filters="sRGB">
<feFlood flood-opacity="0" result="BackgroundImageFix"/>
<feBlend mode="normal" in="SourceGraphic" in2="BackgroundImageFix" result="shape"/>
<feGaussianBlur stdDeviation="47.25" result="effect1_foregroundBlur_408_11"/>
</filter>
<filter id="filter11_f_408_11" x="-578.727" y="7.78279" width="767.608" height="532.341" filterUnits="userSpaceOnUse" color-interpolation-filters="sRGB">
<feFlood flood-opacity="0" result="BackgroundImageFix"/>
<feBlend mode="normal" in="SourceGraphic" in2="BackgroundImageFix" result="shape"/>
<feGaussianBlur stdDeviation="47.25" result="effect1_foregroundBlur_408_11"/>
</filter>
<linearGradient id="paint0_linear_408_11" x1="0" y1="0" x2="1348" y2="360" gradientUnits="userSpaceOnUse">
<stop stop-color="#3877FF"/>
<stop offset="1" stop-color="#224799"/>
</linearGradient>
<linearGradient id="paint1_linear_408_11" x1="680.5" y1="144" x2="673.5" y2="358" gradientUnits="userSpaceOnUse">
<stop stop-color="#3A89FF"/>
<stop offset="1" stop-color="#3A89FF" stop-opacity="0"/>
</linearGradient>
<linearGradient id="paint2_linear_408_11" x1="661.5" y1="92" x2="654.5" y2="306" gradientUnits="userSpaceOnUse">
<stop stop-color="#3A89FF"/>
<stop offset="1" stop-color="#3A89FF" stop-opacity="0"/>
</linearGradient>
<clipPath id="clip0_408_11">
<rect width="1348" height="360" rx="8" fill="white"/>
</clipPath>
</defs>
</svg>
